<svg version="1.1" id="Layer_1" xmlns="http://www.w3.org/2000/svg" xmlns:xlink="http://www.w3.org/1999/xlink" x="0px" y="0px"
	 width="100%" viewBox="0 0 662 475" enable-background="new 0 0 662 475" xml:space="preserve">
<path fill="#FEFFFF" opacity="1.000000" stroke="none" 
	d="
M1.000000,157.000000 
	C1.000000,106.011086 1.040835,55.522072 0.907709,5.033510 
	C0.898876,1.683494 1.472632,0.899806 4.965026,0.901560 
	C222.917099,1.011040 440.869232,1.013506 658.821289,0.889147 
	C662.620728,0.886979 663.083130,1.905260 663.081116,5.319551 
	C662.987549,160.785355 662.985962,316.251221 663.089417,471.717010 
	C663.091797,475.230377 662.483215,476.105438 658.784729,476.103455 
	C440.999298,475.987671 223.213791,475.986908 5.428354,476.104279 
	C1.518215,476.106384 0.909681,475.048950 0.913388,471.430176 
	C1.020589,366.786865 1.000000,262.143433 1.000000,157.000000 
z"/>
<path fill="#7843E6" opacity="1.000000" stroke="none" 
	d="
M577.174622,22.123592 
	C579.832031,19.000570 581.880615,15.758467 585.848389,14.015260 
	C588.822693,11.860287 591.863525,11.372278 595.115234,11.379982 
	C608.438782,11.411552 621.763367,11.298238 635.085999,11.427194 
	C646.708862,11.539696 650.582031,15.497544 650.590332,27.245878 
	C650.632874,87.369080 650.614441,147.492325 650.595215,207.615555 
	C650.594482,209.928177 650.827942,212.305038 649.281494,214.851288 
	C647.888184,219.092896 645.776550,221.937256 641.272095,222.868011 
	C639.015564,224.721451 636.627441,224.551941 634.310547,224.575882 
	C621.327576,224.710052 608.345886,224.448746 595.364258,224.351334 
	C585.527405,224.277512 581.509521,220.437195 581.483521,210.761795 
	C581.403137,180.802261 581.192566,150.841629 581.589355,120.466835 
	C581.527405,118.267982 581.842773,116.492516 581.736206,114.446434 
	C576.721924,123.638039 571.760620,132.578568 566.911865,141.995987 
	C564.466858,146.136551 561.650452,149.365707 556.938660,151.050766 
	C550.503296,152.739136 544.333923,152.577011 538.191040,152.169601 
	C530.856812,151.683182 525.212585,148.369904 521.873291,141.583633 
	C519.154175,136.057831 515.979004,130.776947 512.861328,124.986336 
	C511.159332,121.472107 509.363983,118.481712 507.531525,114.939980 
	C507.429810,148.101944 507.612000,180.846695 507.383606,214.033661 
	C506.699005,220.157928 503.277252,223.126328 497.415649,224.254272 
	C482.292267,224.914612 467.631714,224.728241 452.980713,224.468918 
	C444.234802,224.314117 440.592834,220.407394 440.446899,211.699921 
	C440.251495,200.041382 440.389282,188.378983 440.387878,176.718262 
	C440.381989,127.909508 440.376160,79.100746 440.407043,30.292011 
	C440.408936,27.327765 439.919983,24.271242 441.638489,21.022507 
	C442.934113,16.763523 445.125519,14.112204 449.552277,13.321841 
	C451.372131,11.430770 453.458435,11.671407 455.425446,11.666051 
	C468.905975,11.629346 482.386841,11.693298 495.867065,11.633723 
	C503.919220,11.598139 509.844299,14.843602 513.894897,21.931631 
	C522.151428,36.379456 530.025391,51.039017 538.241333,65.508186 
	C538.734070,66.375977 539.141113,67.293053 539.661194,68.145409 
	C543.206177,73.955673 547.263306,73.889755 550.986694,67.628868 
	C556.801147,59.025684 560.923889,49.905296 565.975952,41.315861 
	C569.679077,35.019905 572.407898,28.168287 577.174622,22.123592 
z"/>
<path fill="#7843E6" opacity="1.000000" stroke="none" 
	d="
M160.674683,240.309753 
	C163.144989,237.045044 165.409973,234.048508 169.216431,232.237732 
	C171.451248,230.597458 173.745422,230.386520 176.114319,230.385788 
	C190.772949,230.381195 205.432144,230.299728 220.090012,230.420761 
	C229.429886,230.497849 233.082458,234.115799 233.555801,243.353363 
	C233.649597,245.183716 233.618500,247.017212 233.618546,248.849472 
	C233.620071,307.317535 233.626831,365.785614 233.598633,424.253693 
	C233.597198,427.219788 234.072388,430.272766 232.320282,433.486298 
	C230.753281,437.452850 229.026276,440.554810 224.383484,441.171692 
	C221.990784,442.771210 219.611008,442.570648 217.298431,442.576111 
	C204.159683,442.607269 191.020660,442.635132 177.882095,442.573822 
	C168.158585,442.528442 164.508423,439.117371 164.476517,429.389496 
	C164.378342,399.454468 164.264862,369.518555 164.510254,339.160217 
	C164.007568,336.222778 164.687912,333.804993 164.998795,332.000458 
	C160.104599,341.027832 155.732635,351.036804 149.128754,360.224243 
	C146.419540,363.421021 144.078827,366.511597 140.336731,368.566437 
	C138.395065,370.514893 136.176666,370.335663 134.042435,370.362701 
	C130.061508,370.413208 126.074333,370.245880 122.099464,370.405060 
	C114.198082,370.721619 108.898369,366.807434 105.170471,360.276062 
	C102.048050,354.805481 99.186150,349.189850 95.826950,343.360809 
	C93.812660,340.219696 92.503311,337.183868 90.556618,333.562866 
	C90.456245,336.375214 90.513710,338.477448 90.513329,340.573090 
	C90.508102,368.832611 90.521515,397.092163 90.491493,425.351654 
	C90.488693,427.984314 90.889511,430.689545 89.385689,433.554382 
	C88.176933,437.765320 86.041237,440.440155 81.563324,441.208160 
	C79.139313,442.664978 76.783272,442.605927 74.449471,442.609253 
	C61.784569,442.627167 49.119267,442.681946 36.454853,442.593048 
	C26.787609,442.525146 23.429693,439.273499 23.418068,429.661377 
	C23.343899,368.336548 23.376497,307.011597 23.396584,245.686707 
	C23.397236,243.694763 23.312714,241.670532 24.587658,239.417038 
	C25.701456,235.047745 28.050112,232.643509 32.441368,231.898712 
	C34.693577,230.456482 36.898708,230.655151 39.047558,230.652542 
	C52.681889,230.635956 66.317696,230.761261 79.950020,230.599258 
	C87.537857,230.509079 92.912827,233.531845 96.640320,240.183868 
	C104.684425,254.539261 112.622322,268.953430 120.654221,283.315369 
	C121.384331,284.620880 122.030701,285.974091 122.850838,287.228333 
	C126.567467,292.912048 129.955978,292.852081 133.791718,286.696350 
	C142.309296,273.002380 149.172012,258.821808 157.042679,245.206573 
	C157.789001,243.915543 158.413589,242.558289 159.729095,241.209442 
	C159.968094,240.928543 160.000534,240.985306 159.967850,240.985001 
	C160.107712,240.843246 160.280273,240.701797 160.674683,240.309753 
z"/>
<path fill="#7844E6" opacity="1.000000" stroke="none" 
	d="
M395.131226,200.621735 
	C391.675598,205.150162 387.897430,208.671707 383.488617,212.010223 
	C382.471527,212.510361 382.160492,213.341125 381.196838,213.857407 
	C380.971283,214.046555 380.966553,213.984283 380.996826,213.976685 
	C380.788208,214.197052 380.553680,214.429459 380.165588,214.857010 
	C380.007629,215.047729 379.998566,214.998047 380.021851,215.007782 
	C373.589294,219.181717 366.476593,221.723953 359.057770,223.505066 
	C357.439484,223.893570 355.879333,224.389908 354.246765,225.710724 
	C347.064514,225.600296 340.258209,225.451645 333.444733,225.426361 
	C328.051178,225.406342 322.831696,226.107758 317.329163,228.059418 
	C297.129730,229.229523 277.674835,227.945557 258.765869,221.380203 
	C233.843124,212.726807 221.755325,196.936096 221.582855,170.616425 
	C221.268616,122.659943 221.481094,74.700317 221.505508,26.742014 
	C221.506439,24.920452 221.429016,23.058027 222.722412,21.021481 
	C224.247299,17.010511 226.158127,14.042283 230.689484,13.335117 
	C232.826965,11.259890 235.241486,11.485432 237.548828,11.477941 
	C250.041046,11.437382 262.534210,11.365808 275.025513,11.490250 
	C287.626434,11.615783 291.502289,15.481841 291.520935,28.008549 
	C291.581665,68.816757 291.540039,109.625084 291.545685,150.433365 
	C291.545959,152.431931 291.484344,154.433105 291.612823,156.428375 
	C292.015961,162.688934 294.535583,165.969604 300.658508,167.325531 
	C308.875580,169.145172 317.213745,168.993439 325.476562,167.642624 
	C329.118774,167.047165 332.507996,165.525085 334.631409,161.568024 
	C336.391022,157.518753 336.398346,153.701660 336.397247,149.866516 
	C336.385742,109.834381 336.379517,69.802238 336.408966,29.770128 
	C336.411041,26.976192 335.987183,24.098484 337.624268,21.022709 
	C338.908813,16.765480 341.203003,14.207840 345.511658,13.254584 
	C347.709991,11.345226 350.090240,11.443002 352.416504,11.437620 
	C364.739807,11.409106 377.064301,11.313038 389.386230,11.463640 
	C400.862488,11.603905 404.545380,15.371586 404.557526,26.969006 
	C404.607178,74.430695 404.771942,121.893776 404.432892,169.353165 
	C404.354950,180.262650 403.459229,191.438202 395.131226,200.621735 
z"/>
<path fill="#7843E6" opacity="1.000000" stroke="none" 
	d="
M331.603638,433.535126 
	C330.572327,437.752716 328.454773,440.306549 324.102539,441.145966 
	C322.027435,442.629425 319.972076,442.445099 317.992828,442.451080 
	C304.994080,442.490448 291.994904,442.528656 278.996552,442.446960 
	C269.856812,442.389557 266.588593,439.186279 266.560944,430.074615 
	C266.480530,403.577209 266.393860,377.078522 266.599823,350.582367 
	C266.684937,339.629669 269.821655,329.144714 273.443298,318.943481 
	C282.419312,293.660614 292.427429,268.761719 302.097992,243.738068 
	C302.399963,242.956635 302.829956,242.243668 303.685120,241.278137 
	C303.966949,240.931702 303.999847,240.987778 303.967407,240.985977 
	C304.105164,240.845749 304.275391,240.707321 304.652771,240.313141 
	C306.148071,238.299500 307.436188,236.541641 308.892761,234.508484 
	C309.833771,232.472260 311.505981,231.897095 313.496704,231.054596 
	C318.052368,230.211304 322.224091,230.541763 326.378204,230.536514 
	C349.852509,230.506836 373.327209,230.579514 396.801147,230.490021 
	C405.145416,230.458221 410.926422,234.139160 413.828125,241.812286 
	C424.013855,268.746887 435.075378,295.352203 444.277588,322.657288 
	C448.514465,335.229065 450.623840,348.102722 450.523438,361.404755 
	C450.361328,382.880096 450.492889,404.357605 450.462860,425.834106 
	C450.459412,428.305054 450.829926,430.849609 449.298584,433.535217 
	C447.761353,437.467285 446.041473,440.580505 441.380035,441.175415 
	C439.140625,442.669922 436.936218,442.553864 434.779938,442.558716 
	C421.622925,442.588440 408.465363,442.646545 395.308929,442.544495 
	C385.410065,442.467712 381.551239,438.506226 381.451080,428.414948 
	C381.350220,418.256409 381.480743,408.096252 381.401398,397.937439 
	C381.356049,392.132721 380.853851,391.633911 375.137787,391.592773 
	C363.480316,391.508881 351.822144,391.641083 339.701843,391.503113 
	C332.685364,391.919403 332.586456,391.978455 332.554718,398.411285 
	C332.508087,407.862579 332.561005,417.314301 332.528656,426.765717 
	C332.521332,428.907501 332.745148,431.090790 331.603638,433.535126 
z"/>
<path fill="#7843E6" opacity="1.000000" stroke="none" 
	d="
M484.582031,239.416519 
	C485.691193,235.049805 488.032623,232.642380 492.421661,231.896957 
	C494.823334,230.375793 497.190735,230.517441 499.515564,230.516556 
	C529.990784,230.504898 560.467773,230.316544 590.940125,230.619598 
	C600.910706,230.718750 610.780457,232.283966 620.421021,235.341171 
	C637.629028,240.798141 647.513123,252.810181 652.050049,269.699860 
	C653.776184,276.126068 654.618530,282.732758 654.536255,289.464630 
	C654.381592,302.119141 654.771423,314.784668 654.408264,327.430908 
	C654.070374,339.199585 652.023682,350.635712 644.282227,360.706055 
	C643.973999,361.038391 643.978271,360.977203 644.008850,360.975098 
	C643.790649,361.211060 643.534241,361.440613 643.039429,361.778412 
	C639.883972,365.660339 636.448975,368.906952 632.410034,371.998169 
	C631.797791,372.265289 631.520142,372.437317 631.112671,372.851624 
	C630.737244,373.156921 630.530701,373.282623 630.182983,373.522217 
	C629.859802,373.982147 629.644043,374.305695 629.201416,374.827209 
	C629.013428,375.051453 629.001526,374.998749 629.024780,375.012573 
	C618.210571,381.205414 606.231750,382.960175 594.092346,383.406525 
	C582.338562,383.838745 570.555969,383.568268 558.330261,383.468964 
	C553.757507,383.323883 552.473633,385.470978 552.509338,389.370056 
	C552.620789,401.526276 552.577942,413.684692 552.531128,425.842102 
	C552.521606,428.314819 552.866760,430.862671 551.262695,433.526459 
	C549.705627,437.436615 548.019897,440.572479 543.360168,441.170410 
	C541.133484,442.689941 538.929565,442.593170 536.772217,442.598969 
	C523.283691,442.635162 509.794739,442.682098 496.306732,442.589203 
	C486.753967,442.523407 483.427155,439.214874 483.416351,429.527649 
	C483.347870,368.246368 483.376831,306.964966 483.397430,245.683624 
	C483.398102,243.693146 483.312256,241.670364 484.582031,239.416519 
z"/>
<path fill="#7843E6" opacity="1.000000" stroke="none" 
	d="
M11.755072,21.010166 
	C13.306422,17.049580 15.161961,14.020079 19.733734,13.353998 
	C21.693796,11.325669 23.946779,11.579495 26.076412,11.572550 
	C38.543068,11.531895 51.009888,11.535477 63.476635,11.564827 
	C64.973541,11.568351 66.466934,11.641390 67.949898,11.870920 
	C76.195557,13.147170 79.257889,16.451891 79.392036,24.815990 
	C79.578613,36.449558 79.405327,48.086830 79.456497,59.722279 
	C79.563324,84.014290 77.906685,76.085014 90.547409,96.665855 
	C91.938171,98.930206 93.432816,101.136307 94.978989,103.299614 
	C99.590050,109.751129 104.873512,109.760475 110.084671,103.023727 
	C114.731110,96.434509 118.487938,89.792252 122.622978,83.390343 
	C124.971550,79.754272 125.555725,75.712540 125.551476,71.489586 
	C125.536964,57.054001 125.525299,42.618336 125.563866,28.182814 
	C125.570000,25.888042 125.214607,23.512510 126.698326,20.990385 
	C128.017700,16.826923 130.174713,14.132633 134.599365,13.334402 
	C136.575409,11.379942 138.810974,11.521044 140.961029,11.514709 
	C152.959366,11.479357 164.957840,11.467498 176.956192,11.516764 
	C178.625549,11.523619 180.282013,11.683249 181.928635,11.970671 
	C189.488464,13.290266 192.337891,16.396299 192.447937,24.086529 
	C192.629135,36.749813 192.535919,49.416191 192.492554,62.080948 
	C192.461746,71.077599 192.773361,80.078720 192.299072,89.070755 
	C191.618576,101.972084 184.452286,111.798103 176.639099,121.763573 
	C170.248688,130.612640 163.783615,138.887955 157.354980,147.678864 
	C151.695770,155.746445 145.888657,163.223312 140.578445,171.066589 
	C138.415588,174.261154 137.277130,177.422272 137.335098,181.265472 
	C137.470673,190.255920 137.402328,199.250015 137.361282,208.242401 
	C137.351517,210.380569 137.688797,212.595810 136.235718,214.913544 
	C134.862152,219.073181 132.782166,221.958923 128.244293,222.871811 
	C126.123352,224.626373 123.896927,224.413361 121.750847,224.425552 
	C107.764732,224.504959 93.778252,224.435638 79.792931,224.328506 
	C70.192810,224.254990 66.666496,220.592911 66.581551,210.847580 
	C66.497375,201.190872 66.464020,191.531601 66.604866,181.876556 
	C66.666382,177.660217 65.393440,174.185120 62.871113,170.822098 
	C48.885216,152.174728 34.854691,133.560593 20.964043,114.840988 
	C13.785557,105.166985 10.660580,94.431076 10.590929,82.649841 
	C10.481668,64.168396 10.549144,45.685886 10.575341,27.203863 
	C10.578146,25.225210 10.362790,23.183409 11.755072,21.010166 
z"/>
<path fill="#09FCFF" opacity="1.000000" stroke="none" 
	d="
M449.375427,433.854126 
	C448.998230,414.071320 448.209381,394.217499 449.142487,374.444916 
	C450.331146,349.257538 445.199493,325.608063 435.800812,302.479889 
	C427.916901,283.079163 420.683594,263.414032 413.166138,243.864456 
	C409.522339,234.388626 406.091278,231.894302 396.054840,231.894714 
	C368.742523,231.895828 341.430237,231.976929 313.666321,231.962830 
	C312.572052,229.246384 314.683807,228.521515 316.591858,227.266388 
	C321.873901,224.358521 327.327972,224.236435 332.818481,224.337585 
	C339.944763,224.468872 347.070862,224.607697 354.584595,224.566956 
	C358.817322,223.129135 362.663849,221.884598 367.021790,223.796356 
	C378.790863,224.204193 390.269409,224.305176 401.748138,224.370438 
	C413.453613,224.436966 417.025665,226.745865 421.116394,237.655136 
	C431.203979,264.557098 442.426666,291.034210 451.401947,318.351959 
	C455.064514,329.499695 456.758270,340.938293 456.689148,352.701447 
	C456.554169,375.672302 456.681213,398.644623 456.622406,421.616119 
	C456.608887,426.888214 456.358612,432.202850 449.375427,433.854126 
z"/>
<path fill="#FE09FF" opacity="1.000000" stroke="none" 
	d="
M316.405426,227.091949 
	C315.734253,228.491638 314.604553,229.914062 313.344788,231.617905 
	C312.047974,232.606934 310.881226,233.314560 309.387817,234.127686 
	C294.241302,234.098236 279.393341,234.176086 264.825439,230.895706 
	C256.540833,229.030182 248.528809,226.381485 240.904205,222.476425 
	C225.804749,214.743073 218.001587,202.198807 216.104019,185.704056 
	C215.515579,180.589005 215.308945,175.404968 215.302338,170.252014 
	C215.243698,124.444595 215.258896,78.637070 215.279755,32.829590 
	C215.283386,24.870554 216.551651,22.755831 222.570724,20.670128 
	C222.970184,69.254936 223.011063,117.889549 222.992493,166.524155 
	C222.989227,175.070984 224.029984,183.439682 226.800705,191.527542 
	C231.761246,206.007507 243.064728,213.721375 256.534882,219.038651 
	C270.644440,224.608322 285.441681,226.442154 300.458405,226.965988 
	C305.616699,227.145920 310.783783,227.072403 316.405426,227.091949 
z"/>
<path fill="#FD07FF" opacity="1.000000" stroke="none" 
	d="
M11.603324,20.684181 
	C12.000639,39.607441 12.418259,58.587852 11.912093,77.543587 
	C11.493303,93.227158 15.887823,106.730972 25.633488,119.085251 
	C39.116173,136.176849 51.796547,153.899521 64.996925,171.217453 
	C67.174339,174.074066 68.018555,176.882034 67.970818,180.372192 
	C67.827438,190.853897 67.886871,201.339020 67.934158,211.822510 
	C67.971245,220.045746 70.781281,222.926361 79.069969,222.965057 
	C95.044708,223.039627 111.020081,222.976837 127.457352,222.995880 
	C126.962173,228.302032 123.084419,229.771332 118.489716,229.932281 
	C113.049255,230.122879 107.598152,230.009232 101.700333,230.067291 
	C93.148933,224.526840 83.902710,225.538406 74.820351,225.411041 
	C70.369888,225.348648 65.850891,226.146179 61.136879,224.394196 
	C59.251801,214.354004 59.800316,204.494400 60.278942,194.749451 
	C60.713169,185.908432 58.268215,178.985291 52.771790,172.057755 
	C40.270435,156.301437 28.721203,139.793732 16.444143,123.853958 
	C8.527104,113.574982 4.246703,102.361526 4.378498,89.302277 
	C4.571591,70.169151 4.339081,51.032070 4.403872,31.897072 
	C4.420708,26.924698 5.015180,22.044025 11.603324,20.684181 
z"/>
<path fill="#0BFAFF" opacity="1.000000" stroke="none" 
	d="
M644.314331,361.005920 
	C647.922668,352.458893 652.187866,343.888641 652.512939,334.256409 
	C653.186707,314.295013 654.688599,294.218475 651.648010,274.404175 
	C648.159729,251.672470 633.320984,237.902130 610.083679,233.999908 
	C602.521118,232.729965 594.920471,231.905823 587.230469,231.914444 
	C556.067505,231.949417 524.904541,231.928909 493.258179,231.879135 
	C492.845398,231.261002 492.916016,230.692596 493.004150,229.694885 
	C493.145935,225.626450 495.745117,224.609573 499.098938,223.806656 
	C501.733246,222.884399 503.993683,222.437546 506.347961,222.440765 
	C529.079163,222.471909 551.810669,222.269485 575.006470,222.543274 
	C591.326843,223.771378 607.358032,222.921997 623.012695,226.488953 
	C625.754456,227.113663 628.537720,227.767746 631.186157,229.803558 
	C651.186401,239.328827 659.463074,256.020996 660.480225,276.539368 
	C661.343384,293.950104 661.828186,311.468506 659.963867,328.869629 
	C658.637878,341.246368 654.025269,352.308411 644.314331,361.005920 
z"/>
<path fill="#04FEFF" opacity="1.000000" stroke="none" 
	d="
M232.364410,433.841187 
	C231.989380,371.945404 231.967468,310.013580 231.945129,248.081741 
	C231.944473,246.250397 231.981216,244.417877 231.929352,242.587906 
	C231.706238,234.716629 229.154343,231.949020 221.404724,231.922211 
	C204.425186,231.863464 187.444946,232.009995 169.955505,232.051025 
	C172.119446,226.252502 177.135040,224.472290 182.947418,224.437103 
	C197.930542,224.346405 212.917389,224.228577 227.897217,224.468109 
	C237.286072,224.618256 239.555511,227.391785 239.578796,237.780350 
	C239.635864,263.252563 239.597809,288.724976 239.597702,314.197327 
	C239.597565,349.825287 239.619049,385.453308 239.573395,421.081207 
	C239.566498,426.467773 239.633194,432.063110 232.364410,433.841187 
z"/>
<path fill="#FB0AFE" opacity="1.000000" stroke="none" 
	d="
M484.515167,239.027893 
	C484.894012,300.790466 484.913757,362.567749 484.933838,424.345001 
	C484.934540,426.509735 484.917358,428.674774 484.945557,430.839172 
	C485.045074,438.479675 487.566833,441.048645 495.118622,441.069611 
	C510.771027,441.113098 526.423584,441.111847 542.537476,441.198090 
	C540.953491,447.077728 538.797119,448.545197 531.135742,448.598602 
	C517.159485,448.696045 503.182068,448.635071 489.205200,448.603912 
	C487.884155,448.600952 486.565826,448.315765 485.242615,448.204041 
	C480.033875,447.764221 477.635040,444.645905 477.182587,439.717987 
	C477.061218,438.396057 477.091888,437.058075 477.091827,435.727448 
	C477.088348,374.162445 477.085815,312.597443 477.093933,251.032455 
	C477.094940,243.255325 478.332916,241.201248 484.515167,239.027893 
z"/>
<path fill="#FC0AFE" opacity="1.000000" stroke="none" 
	d="
M24.521830,239.028290 
	C24.900417,301.166809 24.919588,363.319397 24.940184,425.472015 
	C24.940901,427.638184 24.904860,429.805969 24.973791,431.970215 
	C25.175207,438.293945 27.883850,441.023438 34.267673,441.056702 
	C49.597134,441.136505 64.927101,441.117523 80.733643,441.214661 
	C80.548256,445.827545 77.601814,447.784607 73.341080,448.225494 
	C64.703682,449.119385 56.040371,448.558258 47.391426,448.579376 
	C40.076389,448.597260 32.730633,449.193939 25.443974,448.195679 
	C19.693987,447.407928 17.680883,445.136200 17.172419,439.398438 
	C17.084435,438.405548 17.102051,437.401733 17.102009,436.402954 
	C17.099398,374.455383 17.094486,312.507843 17.107782,250.560272 
	C17.109343,243.295090 18.445982,241.192215 24.521830,239.028290 
z"/>
<path fill="#0CFFFF" opacity="1.000000" stroke="none" 
	d="
M649.390747,215.215851 
	C648.993774,152.868744 648.971130,90.467880 648.943787,28.067022 
	C648.942932,26.070681 649.018188,24.063322 648.842407,22.080204 
	C648.407043,17.168215 645.958008,13.905090 640.803772,13.533651 
	C636.333984,13.211532 631.833069,13.089681 627.352661,13.187768 
	C613.893127,13.482429 600.409790,12.334436 586.563904,13.845012 
	C589.332642,8.239759 594.105042,5.841178 600.573730,5.922134 
	C615.051636,6.103327 629.533508,5.956991 644.013672,5.986119 
	C653.979065,6.006165 656.624084,8.643868 656.631592,18.803167 
	C656.663940,62.410244 656.646851,106.017365 656.646851,149.624466 
	C656.646851,167.599915 656.679993,185.575455 656.626343,203.550751 
	C656.603760,211.103333 655.288147,213.181198 649.390747,215.215851 
z"/>
<path fill="#FC07FF" opacity="1.000000" stroke="none" 
	d="
M498.160126,224.621109 
	C496.212708,225.989700 494.461975,227.041824 493.233551,229.086609 
	C491.213623,229.512787 489.406464,229.966736 487.597382,229.974380 
	C473.440948,230.034256 459.283569,230.082367 445.127594,229.980240 
	C437.200165,229.923065 434.155121,226.955780 434.148193,219.056931 
	C434.093201,156.434265 434.103943,93.811546 434.147034,31.188864 
	C434.150421,26.277786 435.148590,21.765259 441.494568,20.638336 
	C441.893738,83.192024 441.917023,145.798721 441.941193,208.405411 
	C441.946136,221.210892 443.741913,222.988892 456.683960,222.986389 
	C470.171265,222.983780 483.658600,222.973816 497.619293,223.001907 
	C498.393890,223.432220 498.509094,223.872192 498.160126,224.621109 
z"/>
<path fill="#0AFEFF" opacity="1.000000" stroke="none" 
	d="
M395.116211,200.983490 
	C400.888000,190.777557 402.945160,179.572098 402.960571,167.937195 
	C403.023590,120.272156 403.002136,72.606979 402.977844,24.941877 
	C402.973389,16.163349 400.140137,13.243665 391.276489,13.186963 
	C376.444672,13.092084 361.611572,13.197311 346.298981,13.165990 
	C346.521515,8.315447 349.705322,6.164788 354.145630,6.126072 
	C369.972260,5.988077 385.801880,5.955202 401.627869,6.120610 
	C407.125397,6.178069 409.711456,8.858750 410.493011,14.374185 
	C410.748535,16.177498 410.723999,18.029125 410.724426,19.858686 
	C410.735687,65.846519 410.751526,111.834366 410.719299,157.822174 
	C410.711914,168.371170 409.762573,178.783493 405.109558,188.492798 
	C402.783722,193.346085 399.712128,197.644058 395.116211,200.983490 
z"/>
<path fill="#02FEFF" opacity="1.000000" stroke="none" 
	d="
M335.747986,161.482727 
	C335.153839,166.439041 331.332916,168.005646 327.446014,168.845490 
	C318.235901,170.835510 308.902588,170.807465 299.694794,168.816818 
	C292.812805,167.328949 289.845673,162.862320 289.840729,154.722198 
	C289.815948,113.922379 289.828430,73.122551 289.827942,32.322727 
	C289.827698,13.692938 289.270844,13.132324 270.392487,13.147041 
	C257.570221,13.157038 244.747971,13.203046 231.455429,13.198006 
	C231.819748,8.177965 235.155777,6.126275 239.809311,6.100054 
	C255.798889,6.009957 271.790527,5.934928 287.778656,6.108014 
	C294.540558,6.181219 297.148651,9.318513 297.166229,16.871950 
	C297.229431,44.022804 297.195923,71.173882 297.197968,98.324875 
	C297.199219,114.482216 297.177094,130.639603 297.206757,146.796890 
	C297.224884,156.675247 300.549957,160.616028 310.299438,162.399368 
	C316.581116,163.548386 322.916992,162.891510 329.692932,162.738617 
	C331.670197,161.233154 333.379486,160.614975 335.747986,161.482727 
z"/>
<path fill="#FB09FE" opacity="1.000000" stroke="none" 
	d="
M303.608704,240.849457 
	C302.825134,247.889160 299.393799,254.046997 297.027100,260.571228 
	C289.044037,282.577789 279.552399,304.026489 272.633362,326.428528 
	C269.529205,336.479004 267.763458,346.692352 267.845978,357.290497 
	C268.035156,381.582886 267.890259,405.877747 267.919159,430.171570 
	C267.929321,438.705200 270.349365,441.060913 278.923706,441.076569 
	C293.566193,441.103271 308.208649,441.116455 323.291779,441.189392 
	C322.771210,446.137817 319.400330,448.319672 314.810394,448.359161 
	C299.664642,448.489471 284.509003,448.675598 269.373444,448.254242 
	C262.387299,448.059723 260.096283,445.006378 260.080963,437.882874 
	C260.024384,411.567505 259.767395,385.246918 260.196594,358.938263 
	C260.449585,343.430969 265.977844,328.984161 271.401764,314.658569 
	C279.464111,293.364380 287.651764,272.117584 295.820587,250.863876 
	C297.366669,246.841187 298.737488,242.632553 303.608704,240.849457 
z"/>
<path fill="#07FEFF" opacity="1.000000" stroke="none" 
	d="
M111.422745,102.265213 
	C110.141556,106.552254 107.742584,109.507553 102.750557,109.671989 
	C98.061272,109.826447 95.516174,107.330002 93.306389,103.665276 
	C89.531723,97.405304 85.625839,91.215050 81.528008,85.162796 
	C78.989189,81.413109 77.930115,77.452820 77.950867,72.980019 
	C78.024193,57.179688 77.985435,41.378704 77.950676,25.578054 
	C77.929863,16.117605 75.248672,13.248453 65.866737,13.187584 
	C50.898918,13.090477 35.929691,13.210279 20.493717,13.205291 
	C20.899433,8.241172 24.138346,6.104090 28.842365,6.083572 
	C44.666721,6.014550 60.493076,5.924600 76.315453,6.112854 
	C82.815987,6.190197 85.485855,9.463618 85.593849,17.125643 
	C85.758179,28.784304 86.387024,40.506451 85.458763,52.092690 
	C84.306847,66.470657 87.571953,78.997169 96.779190,90.082634 
	C98.783310,92.495583 100.279083,95.344627 101.900375,98.057724 
	C103.479889,100.700897 105.666328,102.216942 109.145416,102.196220 
	C110.025330,102.039291 110.546303,102.035301 111.422745,102.265213 
z"/>
<path fill="#FD0EFF" opacity="1.000000" stroke="none" 
	d="
M164.851059,337.065979 
	C166.730606,338.647827 165.978256,340.745056 165.981888,342.654663 
	C166.036743,371.467255 166.009277,400.279999 166.026291,429.092682 
	C166.032059,438.847595 168.310867,441.070343 178.131332,441.080536 
	C193.120300,441.096130 208.109268,441.113464 223.561523,441.199829 
	C223.062759,447.222168 218.518372,448.475250 213.678482,448.532959 
	C198.710602,448.711395 183.739136,448.591827 168.769073,448.570374 
	C168.110519,448.569427 167.450043,448.407898 166.794128,448.299133 
	C161.141617,447.361542 159.003784,445.157715 158.438309,439.495209 
	C158.257126,437.680817 158.307465,435.840149 158.306152,434.011444 
	C158.286392,406.564850 158.275711,379.118256 158.179535,351.190399 
	C158.417740,345.345551 161.389175,341.242096 164.851059,337.065979 
z"/>
<path fill="#09F8FF" opacity="1.000000" stroke="none" 
	d="
M60.278095,224.208221 
	C69.688736,224.230011 78.575615,224.366776 87.462967,224.456497 
	C92.546829,224.507812 97.351669,225.204544 100.991196,229.857056 
	C110.142059,246.084869 119.027443,262.066864 127.936745,278.035553 
	C129.226700,280.347626 130.257217,282.840332 132.597305,284.765015 
	C133.680939,284.488129 134.292389,284.799774 135.062698,285.575165 
	C134.391617,289.155243 133.362320,292.250275 129.312088,292.878418 
	C125.158409,293.522614 123.419296,290.838654 121.730049,287.779358 
	C113.373405,272.645416 104.752815,257.653320 96.631538,242.394989 
	C92.559937,234.745193 86.975380,231.433456 78.189323,231.745346 
	C63.395737,232.270493 48.570911,231.915863 33.277496,231.881836 
	C33.330200,227.338013 35.988949,225.007248 40.380997,224.817169 
	C46.834164,224.537857 53.296246,224.464569 60.278095,224.208221 
z"/>
<path fill="#FD0AFF" opacity="1.000000" stroke="none" 
	d="
M338.768158,390.398041 
	C352.202972,390.031464 365.366760,390.168793 378.521790,389.891022 
	C382.508972,389.806793 383.168243,391.286377 383.106964,394.806946 
	C382.909790,406.131744 383.021545,417.462158 383.038239,428.790375 
	C383.052277,438.325989 385.753265,441.066650 395.115662,441.081085 
	C410.108643,441.104187 425.101593,441.115967 440.557526,441.202637 
	C439.104553,447.008392 436.856659,448.526031 429.196777,448.601715 
	C418.061127,448.711670 406.923584,448.637238 395.786865,448.627533 
	C392.629608,448.624786 389.456665,448.765442 386.318237,448.507568 
	C378.083832,447.830963 375.459045,445.067291 375.376404,436.826111 
	C375.264740,425.690491 375.049194,414.541534 375.475586,403.421234 
	C375.674805,398.224976 374.027100,396.977173 369.073059,397.174438 
	C359.448456,397.557678 349.796753,397.259308 339.709808,397.212585 
	C337.140839,395.258392 337.510986,393.037079 338.768158,390.398041 
z"/>
<path fill="#04FDFF" opacity="1.000000" stroke="none" 
	d="
M551.843506,66.864189 
	C551.695007,70.462265 550.637451,73.295197 546.918762,74.072792 
	C543.066833,74.878242 540.796997,73.043129 538.975464,69.704155 
	C530.617249,54.382725 521.904907,39.252300 513.692932,23.854235 
	C509.629089,16.234247 503.938080,12.815974 495.246338,13.047263 
	C480.444733,13.441138 465.626312,13.203933 450.332520,13.201620 
	C450.452393,8.335363 453.636139,6.185875 458.061981,6.147403 
	C474.674133,6.003000 491.289795,5.945449 507.900848,6.139403 
	C514.555176,6.217100 518.099670,11.063034 521.009888,16.290827 
	C528.272644,29.337479 535.428589,42.443760 542.722656,55.472740 
	C544.734009,59.065483 546.207520,63.006382 549.492188,66.142624 
	C550.482361,66.112198 551.100952,66.208939 551.843506,66.864189 
z"/>
<path fill="#07FCFF" opacity="1.000000" stroke="none" 
	d="
M174.845444,123.262726 
	C175.009003,122.772675 175.029053,122.581429 175.133301,122.466705 
	C188.952255,107.258858 192.396912,89.117027 191.276154,69.194405 
	C190.445343,54.426220 191.148102,39.573730 191.095490,24.759056 
	C191.064377,15.999932 188.420227,13.281645 179.297745,13.200868 
	C164.817749,13.072655 150.335358,13.215825 135.375809,13.212118 
	C135.574631,8.406054 138.683029,6.177377 143.145874,6.138973 
	C158.782120,6.004419 174.421707,5.960536 190.056793,6.149291 
	C195.535172,6.215428 198.775070,9.330216 198.746841,15.074259 
	C198.629929,38.848114 200.034393,62.649223 197.887665,86.390396 
	C197.353989,92.292435 194.810089,97.629082 191.522873,102.467361 
	C186.668137,109.612801 181.500504,116.545647 176.202042,123.773224 
	C175.450363,124.129936 175.055542,123.990349 174.845444,123.262726 
z"/>
<path fill="#FB08FE" opacity="1.000000" stroke="none" 
	d="
M336.242615,161.383667 
	C334.354401,162.026398 332.623718,162.340286 330.523071,162.627625 
	C330.135101,118.973099 330.100739,75.345131 330.115784,31.717184 
	C330.118195,24.804617 331.627472,22.592482 337.478333,20.641594 
	C337.879059,65.528214 337.904785,110.468849 337.940369,155.409485 
	C337.941986,157.443604 337.724243,159.393906 336.242615,161.383667 
z"/>
<path fill="#FC0EFF" opacity="1.000000" stroke="none" 
	d="
M631.875000,230.081146 
	C613.700256,224.261765 595.298035,224.430939 576.465454,224.259216 
	C573.517212,222.553329 573.435669,220.000504 573.438782,217.485199 
	C573.472717,190.157913 573.173157,162.829956 573.601074,135.054230 
	C574.552429,128.074646 578.045166,122.841156 582.512756,117.860764 
	C582.959900,148.416534 582.993103,179.005203 583.031738,209.593872 
	C583.045471,220.474976 585.575806,222.973724 596.630371,222.978760 
	C611.093811,222.985352 625.557312,222.967575 640.484924,222.988373 
	C640.119141,227.892456 636.617920,229.452927 631.875000,230.081146 
z"/>
<path fill="#0AF9FE" opacity="1.000000" stroke="none" 
	d="
M89.480934,433.877136 
	C89.132393,399.278473 89.132393,364.646851 89.132393,330.015198 
	C89.421242,329.900299 89.710083,329.785431 89.998932,329.670563 
	C92.234589,333.970459 94.470245,338.270355 96.906113,342.873840 
	C99.158875,350.077698 99.124199,357.037781 97.389969,364.403931 
	C97.008064,383.926239 96.954918,403.082245 96.862701,422.238068 
	C96.837479,427.477844 96.142006,432.381470 89.480934,433.877136 
z"/>
<path fill="#FC0AFF" opacity="1.000000" stroke="none" 
	d="
M111.955589,102.229599 
	C111.260284,102.423332 110.742859,102.414894 109.865158,102.258560 
	C118.380142,91.657669 120.083504,79.437935 119.291595,66.183922 
	C118.597870,54.573177 119.085594,42.887356 119.185081,31.235838 
	C119.226974,26.329399 120.212906,21.824612 126.520905,20.653019 
	C126.913895,38.198040 126.928810,55.795876 126.948982,73.393700 
	C126.953651,77.468552 125.970634,81.193085 123.623596,84.622169 
	C119.697540,90.358200 115.953896,96.219086 111.955589,102.229599 
z"/>
<path fill="#F90AFE" opacity="1.000000" stroke="none" 
	d="
M557.800293,382.507935 
	C575.664429,381.831635 593.259827,383.339722 610.710632,380.113190 
	C616.791809,378.988770 622.325378,376.295319 628.656006,374.933594 
	C624.080994,381.453796 616.776184,383.867706 609.468811,385.942108 
	C593.067871,390.597992 576.184998,389.894501 558.946228,389.891663 
	C555.831665,387.919403 556.398621,385.437653 557.800293,382.507935 
z"/>
<path fill="#FC07FE" opacity="1.000000" stroke="none" 
	d="
M97.350998,364.989746 
	C97.027840,357.869904 96.979752,350.969543 97.018997,343.623291 
	C100.073875,348.511627 103.116402,353.805878 105.989761,359.190369 
	C109.482658,365.735809 114.549110,369.514862 122.256454,369.210297 
	C127.874298,368.988281 133.498734,368.933014 139.600037,368.778625 
	C139.358429,369.848785 138.798950,371.105865 137.890350,372.013397 
	C129.557709,380.336365 104.999313,377.382965 98.854927,367.362122 
	C98.423203,366.658051 98.034676,365.927429 97.350998,364.989746 
z"/>
<path fill="#04FDFF" opacity="1.000000" stroke="none" 
	d="
M136.375610,215.198349 
	C135.981979,202.989624 135.999405,190.727631 135.910889,178.466400 
	C135.894562,176.204697 136.448242,174.382523 137.847717,172.541702 
	C144.161682,164.236465 150.323303,155.815414 156.801514,147.229691 
	C157.565994,146.885452 157.970062,147.037354 158.183014,147.783813 
	C153.989578,153.790924 149.969879,159.506042 145.778809,165.092590 
	C144.194977,167.203751 143.520462,169.351868 143.547363,171.994110 
	C143.655975,182.658157 143.681412,193.325180 143.544159,203.988617 
	C143.480698,208.918747 143.097229,213.919434 136.375610,215.198349 
z"/>
<path fill="#02FDFF" opacity="1.000000" stroke="none" 
	d="
M557.677673,382.218170 
	C558.228088,384.441467 558.332214,386.747925 558.473511,389.489532 
	C558.447144,401.158142 558.382141,412.391632 558.320740,423.625092 
	C558.294434,428.441742 557.146179,432.523499 551.334595,433.843811 
	C550.956177,418.838745 551.167542,403.791107 550.792053,388.758148 
	C550.663757,383.621063 552.023865,381.417084 557.677673,382.218170 
z"/>
<path fill="#09F3FD" opacity="1.000000" stroke="none" 
	d="
M338.594116,390.018677 
	C339.056854,392.184967 339.071167,394.316376 339.174408,396.814819 
	C339.192230,406.109406 339.125397,415.037048 339.048370,423.964600 
	C339.006012,428.874390 337.496216,432.759491 331.722046,433.897919 
	C331.363312,421.558624 331.291870,409.183990 331.332550,396.809753 
	C331.358124,389.032501 330.331482,390.037872 338.594116,390.018677 
z"/>
<path fill="#FA0EFE" opacity="1.000000" stroke="none" 
	d="
M552.332520,66.999359 
	C551.413025,67.006844 550.806824,66.876625 550.010376,66.501465 
	C556.332703,54.323757 562.816833,42.375332 569.376160,30.468285 
	C571.209412,27.140375 572.998718,23.703838 577.114014,21.967991 
	C569.677063,37.176991 561.811157,52.378933 552.332520,66.999359 
z"/>
<path fill="#FA0DFE" opacity="1.000000" stroke="none" 
	d="
M135.497391,285.663605 
	C134.648804,285.666901 134.040054,285.458405 133.176605,285.048035 
	C139.546646,272.619843 146.119278,260.364777 152.834503,248.188324 
	C154.417572,245.317810 156.124237,242.398621 159.615448,240.869507 
	C155.680405,251.591843 149.291687,261.153748 143.976715,271.278320 
	C141.442352,276.106049 139.189743,281.140503 135.497391,285.663605 
z"/>
<path fill="#0FF1FE" opacity="1.000000" stroke="none" 
	d="
M165.281693,336.562164 
	C162.885864,341.311890 160.584396,345.703735 158.189560,350.402344 
	C155.529755,354.124725 153.715637,358.200867 149.313660,360.429932 
	C154.280045,350.289154 159.596985,340.031036 165.616074,328.418243 
	C166.077393,332.040802 166.492935,334.112366 165.281693,336.562164 
z"/>
<path fill="#F50DFD" opacity="1.000000" stroke="none" 
	d="
M367.599792,223.842545 
	C363.471985,224.246689 359.631714,224.374496 355.381775,224.446472 
	C354.938995,224.064667 354.845154,223.459961 354.881317,223.452103 
	C363.375916,221.602112 371.360626,218.311691 379.667725,214.940598 
	C376.996277,219.294632 372.146606,221.010590 367.599792,223.842545 
z"/>
<path fill="#19F2FD" opacity="1.000000" stroke="none" 
	d="
M158.368286,147.955536 
	C157.888779,147.843674 157.700058,147.560349 157.287262,147.150177 
	C162.833679,139.106110 168.604156,131.188934 174.662125,123.099976 
	C175.057678,123.250763 175.241928,123.521469 175.720184,123.858871 
	C170.178345,131.912994 164.418701,139.848557 158.368286,147.955536 
z"/>
<path fill="#F50DFD" opacity="1.000000" stroke="none" 
	d="
M381.234406,213.890411 
	C381.520172,213.475433 382.069061,212.904343 382.906250,212.249298 
	C382.628845,212.688339 382.063171,213.211319 381.234406,213.890411 
z"/>
<path fill="#FB09FE" opacity="1.000000" stroke="none" 
	d="
M304.596954,240.104279 
	C304.849548,240.407806 304.698120,240.679703 304.170319,240.928619 
	C304.067932,240.706512 304.200958,240.428848 304.596954,240.104279 
z"/>
<path fill="#0BFAFF" opacity="1.000000" stroke="none" 
	d="
M643.123291,361.934326 
	C643.020691,361.563568 643.231689,361.230774 643.741028,360.935486 
	C643.838562,361.306091 643.637756,361.639160 643.123291,361.934326 
z"/>
<path fill="#F90AFE" opacity="1.000000" stroke="none" 
	d="
M631.220337,373.034119 
	C631.173950,372.788879 631.403870,372.546295 631.873901,372.229675 
	C631.908264,372.449402 631.702454,372.743103 631.220337,373.034119 
z"/>
<path fill="#F90AFE" opacity="1.000000" stroke="none" 
	d="
M629.358521,374.983154 
	C629.178650,374.695831 629.343872,374.340179 629.775391,373.810181 
	C629.929016,374.062134 629.816284,374.488525 629.358521,374.983154 
z"/>
<path fill="#FA0DFE" opacity="1.000000" stroke="none" 
	d="
M160.629272,240.101425 
	C160.858765,240.403793 160.693573,240.669128 160.168060,240.919922 
	C160.077454,240.704361 160.219742,240.424026 160.629272,240.101425 
z"/>
<path fill="#F50DFD" opacity="1.000000" stroke="none" 
	d="
M380.305115,215.014175 
	C380.157410,214.725113 380.307190,214.402512 380.742035,214.024475 
	C380.885590,214.306244 380.744110,214.643433 380.305115,215.014175 
z"/>
<path fill="#FFFFFF" opacity="1.000000" stroke="none" 
	d="
M574.737183,132.361954 
	C575.169006,160.003281 575.229370,187.693970 575.342834,215.384430 
	C575.353638,218.023148 575.695862,220.660538 575.948242,223.716644 
	C553.741150,224.212143 531.469971,224.267456 509.199158,224.389908 
	C505.718719,224.409042 502.239899,224.733719 498.335358,224.897949 
	C497.955322,224.469818 498.000305,224.060852 498.068970,223.344299 
	C501.956268,222.053223 505.022766,220.185257 506.046570,215.615631 
	C511.661987,211.655136 512.674377,206.331055 512.562378,200.121338 
	C512.295532,185.326355 512.469727,170.523270 512.482666,155.723450 
	C512.484680,153.399246 512.352478,151.063812 512.985474,148.359222 
	C515.083008,145.458267 516.459778,147.524124 517.292236,148.832779 
	C521.472595,155.404633 527.732483,156.659973 534.913025,156.754501 
	C542.886780,156.859512 550.501038,156.470139 556.924194,150.227661 
	C560.732666,148.308380 563.310303,145.637665 565.642578,142.219055 
	C569.338318,139.354218 571.042114,135.156982 574.737183,132.361954 
z"/>
<path fill="#0AF9FE" opacity="1.000000" stroke="none" 
	d="
M514.401001,145.924255 
	C514.025269,165.597641 513.977295,184.905334 513.866028,204.212677 
	C513.825867,211.185974 512.336182,213.409821 506.507446,215.228943 
	C506.137177,180.625671 506.137177,145.970230 506.137177,109.988823 
	C509.281586,115.382355 511.948456,119.636467 513.910889,124.708847 
	C516.207703,131.818893 516.029968,138.670547 514.401001,145.924255 
z"/>
<path fill="#FE04FF" opacity="1.000000" stroke="none" 
	d="
M514.380005,146.543045 
	C514.036499,139.514587 513.974792,132.739075 513.984497,125.502182 
	C517.066589,130.360855 520.279236,135.578598 523.037354,141.026489 
	C526.615784,148.094696 532.480713,150.900772 540.010010,150.977219 
	C545.474609,151.032700 550.962463,151.320999 556.794800,149.995026 
	C555.633118,153.840515 552.480774,156.006836 548.669189,156.901718 
	C540.821106,158.744293 532.871033,158.663971 525.020569,156.847366 
	C519.653076,155.605301 517.104370,151.192657 514.380005,146.543045 
z"/>
<path fill="#0FF2FE" opacity="1.000000" stroke="none" 
	d="
M575.165527,132.022186 
	C572.375916,135.625229 570.866699,140.007889 566.227234,141.960144 
	C571.217590,131.824005 576.559875,121.658836 581.902161,111.493660 
	C582.244812,111.536766 582.587463,111.579872 582.930115,111.622971 
	C582.930115,113.422234 582.930115,115.221497 582.927368,117.424316 
	C579.801270,122.152405 577.602966,126.988365 575.165527,132.022186 
z"/>
<path fill="#04FCFF" opacity="1.000000" stroke="none" 
	d="
M377.588318,329.693329 
	C378.641357,332.140900 379.336365,334.323212 380.188843,336.999817 
	C365.488342,336.999817 351.363281,336.976807 337.238464,337.024323 
	C335.087158,337.031555 334.632477,336.100037 335.207703,334.265076 
	C339.580933,320.314575 343.891998,306.343933 348.389771,292.433685 
	C349.220093,289.865814 350.869812,287.623260 354.585175,287.974731 
	C356.557129,290.487427 354.612244,292.605072 354.184753,295.268494 
	C351.137360,305.031647 348.499512,314.508057 345.310883,323.806885 
	C344.110565,327.307312 344.877563,328.742126 348.715485,328.660004 
	C355.044983,328.524475 361.379944,328.627899 368.131897,328.592560 
	C371.468506,328.612244 374.443909,328.058044 377.588318,329.693329 
z"/>
<path fill="#FD04FF" opacity="1.000000" stroke="none" 
	d="
M377.898438,329.587982 
	C374.939056,329.964294 371.931793,329.969971 368.477905,329.904846 
	C365.943268,328.367432 365.523682,326.030151 364.872162,323.807465 
	C362.912628,317.122833 360.876099,310.462463 358.781158,303.818207 
	C357.752289,300.555054 356.269501,297.711700 353.346649,295.262634 
	C353.713531,292.877930 354.294800,290.806793 354.921570,288.377258 
	C364.115723,287.657654 365.139252,288.310760 367.816895,296.827148 
	C371.207031,307.609558 374.509979,318.419373 377.898438,329.587982 
z"/>
<path fill="#05FAFE" opacity="1.000000" stroke="none" 
	d="
M587.900085,322.499146 
	C587.776855,328.146606 583.750549,329.615906 579.494324,329.795593 
	C570.707825,330.166534 561.896484,329.907623 553.097656,330.050079 
	C550.533081,330.091644 550.111816,328.872070 550.122253,326.701172 
	C550.182129,314.246857 550.170227,301.792023 550.142578,289.337463 
	C550.129272,283.340057 554.676208,287.011078 557.470703,286.043030 
	C559.592712,287.829437 559.487488,290.046173 559.450928,292.705566 
	C559.660767,300.786804 559.625183,308.413635 559.486206,316.032562 
	C559.411194,320.143677 561.022278,321.641235 565.058533,321.510651 
	C570.686035,321.328583 576.326477,321.401459 582.422852,321.522827 
	C584.465210,321.516144 586.044006,321.499634 587.900085,322.499146 
z"/>
<path fill="#FE02FF" opacity="1.000000" stroke="none" 
	d="
M558.456970,293.398743 
	C558.060791,291.073029 557.998047,289.004395 557.924744,286.495087 
	C564.529663,286.043671 571.146362,285.947418 577.760193,286.046722 
	C584.045715,286.141083 587.465759,287.998932 588.812805,293.878632 
	C590.950562,303.209045 591.101990,312.757507 588.477966,322.481323 
	C586.727417,322.848389 585.171936,322.912506 583.156494,322.904999 
	C581.457275,321.260254 581.645630,319.380798 581.596497,317.564758 
	C581.537903,315.399994 581.620911,313.232574 581.556824,311.067810 
	C581.170959,298.021820 577.669434,294.580231 564.678101,294.412872 
	C562.691589,294.387299 560.664001,294.595795 558.456970,293.398743 
z"/>
<path fill="#FDFDFF" opacity="1.000000" stroke="none" 
	d="
M352.956085,295.282227 
	C357.195251,295.341095 358.450195,298.426544 359.459442,301.658630 
	C362.312653,310.796021 365.110413,319.950684 367.980652,329.466309 
	C359.572510,329.834076 351.113770,329.834076 342.055511,329.834076 
	C345.685547,318.251617 349.232727,306.933502 352.956085,295.282227 
z"/>
<path fill="#FFFBFF" opacity="1.000000" stroke="none" 
	d="
M558.049194,293.593689 
	C562.284729,293.177795 566.459656,293.012024 570.604065,293.294525 
	C577.897705,293.791626 580.937134,296.860443 582.112366,303.987000 
	C583.096497,309.955017 582.524719,315.944458 582.701172,322.377808 
	C575.596680,322.885345 568.492371,322.809021 561.398987,323.050507 
	C558.436829,323.151337 557.847656,321.981689 557.894470,319.319092 
	C558.042542,310.896729 557.965149,302.470459 558.049194,293.593689 
z"/>
</svg>